<?xml version="1.0" encoding="utf-8"?>
<!-- Generator: Adobe Illustrator 17.1.0, SVG Export Plug-In . SVG Version: 6.00 Build 0)  -->
<!DOCTYPE svg PUBLIC "-//W3C//DTD SVG 1.1//EN" "http://www.w3.org/Graphics/SVG/1.1/DTD/svg11.dtd">
<svg version="1.1" id="Layer_1" xmlns="http://www.w3.org/2000/svg" xmlns:xlink="http://www.w3.org/1999/xlink" x="0px" y="0px"
	 viewBox="0 0 267 97" enable-background="new 0 0 267 97" xml:space="preserve">
<path fill="#EEEEEE" d="M62.8,40.3h7.5l2.2,2.3l-3.9,6.5L58.5,91c0,0-4.4,4.5-7.6-1.5L62.8,40.3z"/>
<path fill="#ADD36B" d="M72.7,9.7c0,0-52.4,0.1-65.8,32c0,0-0.9,1.7,3.3,1c0,0,6.1-4.8,15,3.2c0,0,2.1,3.3,6.6,0.8
	c0,0,10-3.9,15.9,2c0,0,3.7,4.6,7.7,0.9c0,0,7.6-3.9,17.8,1.4c0,0,3.6,3,7.5,0.7c0,0,6.6-4.5,16.7,2.3c0,0,2.1,4.5,6,2.6
	c0,0,9.8-6.9,20.4,0.7c0,0,2.6,2,4-1.5C127.9,55.8,122.2,13.5,72.7,9.7z"/>
<path fill="#32C2DC" d="M73.1,55.5"/>
<g>
	<path fill="#32C2DC" d="M26.9,47.3L26.9,47.3C41,20.2,73.3,10,73.9,9.8c-0.4,0-0.8-0.1-1.2-0.1c0,0-52.4,0.1-65.8,32
		c0,0-0.9,1.7,3.3,1c0,0,6.1-4.8,15,3.2C25.2,45.9,25.8,46.8,26.9,47.3z"/>
	<path fill="#32C2DC" d="M76.2,10c-0.7-0.1-1.5-0.2-2.2-0.2l2.3,1.3c-10.9,3.6-25.3,39.7-25.3,39.7l0,0c1.3,0.4,2.9,0.2,4.5-1.3
		c0,0,7.6-3.9,17.8,1.4c0,0,1.8,1.4,4.1,1.6C78.4,42.1,76.5,14.7,76.2,10z"/>
	<path fill="#32C2DC" d="M76.8,10.1l1.9,2.1c13.2,6.1,22.2,43,22.7,44.9c0.6,0,1.3-0.1,2-0.5c0,0,9.8-6.9,20.4,0.7c0,0,2.6,2,4-1.5
		C127.9,55.8,122.5,15.8,76.8,10.1z"/>
</g>
<circle fill="#EEEEEE" cx="76.1" cy="9.6" r="3.7"/>
</svg>
