<?xml version="1.0" encoding="utf-8"?>
<!-- Generator: Adobe Illustrator 17.1.0, SVG Export Plug-In . SVG Version: 6.00 Build 0)  -->
<!DOCTYPE svg PUBLIC "-//W3C//DTD SVG 1.1//EN" "http://www.w3.org/Graphics/SVG/1.1/DTD/svg11.dtd">
<svg version="1.1" id="Layer_1" xmlns="http://www.w3.org/2000/svg" xmlns:xlink="http://www.w3.org/1999/xlink" x="0px" y="0px"
	 viewBox="0 173 648 306" style="enable-background:new 0 173 648 306;" xml:space="preserve">
<style type="text/css">
	.st0{fill:none;}
	.st1{enable-background:new    ;}
	.st2{fill:#EEEEEE;}
	.st3{fill:#ADD36B;}
	.st4{fill:#32C2DC;}
</style>
<rect x="73.2" y="276.6" class="st0" width="616.4" height="248.3"/>
<g class="st1">
	<path class="st2" d="M134.8,383.1c0,9.3-4.7,17-9.5,19.9c-2.6,6.1-14,11.9-27.6,11.9c-9.8,0-18.7-3-34.3-17.4
		c-1.3-1.3-2.1-2.6-2.1-4.4c0-4.2,5.3-8.5,11.5-8.5c12.9,0,14.8,18.7,36.5,18.7c11.7,0,14.8-5.5,14.8-9.8
		c0-15.3-36.9-27.3-36.9-57.7c0-23.5,22.1-57.2,39.2-57.2c5.3,0,11.5,3.2,11.9,5.7c7.6,3.6,9.8,11.2,9.8,16.8c0,4.2-1.1,11.2-5.3,35
		c-1.1,6.4-4.2,9.5-9.7,9.5c-4.9,0-9.3-2.3-9.3-9.1c0-12.1,13.4-29.5,13.4-41.6c0-2.8-0.8-5.5-2.3-7.9
		c-13.4-0.6-29.5,28.2-29.5,44.3C105.6,353,134.8,360.2,134.8,383.1z"/>
	<path class="st2" d="M156.9,410.7c-4.9,22.5-8.9,42.4-9.5,49.2c-0.4,4.5-3.6,5.7-7,5.7c-4,0-8.1-2.1-8.1-8.1
		c0-6.2,19.1-101.8,26.5-128.5c1.3-4.7,5.1-6.8,8.7-6.8c4.2,0,8.1,2.6,8.1,7.2c0,0.8,0,1.3-1.5,7.6c5.5-11.9,12.3-20.3,20.4-20.3
		c11.5,0,16.3,11.2,16.3,24.8c0,22.3-11.9,53.4-27.6,66.4c17.2-3.8,27.4-14.6,36.5-33.3c0.9-2.1,2.1-3,3-3c0.8,0,1.3,0.8,1.3,2.1
		c0,0.9-0.2,1.7-0.6,2.8c-9.7,23.8-22.3,38.4-50,38.4C164.9,414.9,159.8,413,156.9,410.7z M159.4,400.5c2.1,0,4.5,1.1,7.2,4.4
		c12.9-2.3,25.9-43.5,25.9-63.8c0-6.8-1.5-10.8-4.9-10.8c-7.4,0-15.7,18.5-22,42.8L159.4,400.5z"/>
	<path class="st2" d="M266.5,274.7c4.9,2.8,8.3,6.4,8.3,19.1c0,26.1-14.4,75.1-37.3,72.9c-1.5,9.7-2.5,18.2-2.5,24
		c0,8.1,2.3,11.9,7.6,11.9c10,0,21.8-14.8,28.4-28c0.9-2.1,2.1-2.8,3-2.8c0.8,0,1.3,0.8,1.3,2.1c0,0.8-0.2,1.5-0.6,2.6
		c-5.9,14.6-22.1,38.2-38.4,38.2c-12.9,0-17.2-11.5-17.2-28.6c0-10.8,1.7-23.8,4.4-37.5c7-37.9,18.2-77.8,35.4-77.8
		C262.3,270.9,265.2,272.8,266.5,274.7z M238.3,362.1c15.3-12.5,25.9-53.4,25.9-75.5c0-3-0.2-5.9-0.6-8.1
		C256.8,280.5,244.2,327.5,238.3,362.1z"/>
	<path class="st2" d="M320.6,398.2c0,2.8,0.9,4.7,2.6,4.7c4,0,9.8-10,18.7-28.4c0.9-2.1,2.5-3.2,3.4-3.2c0.6,0,1.1,0.6,1.1,1.9
		c0,0.8-0.2,1.9-0.8,3.2c-2.6,6.6-14.6,37.7-29.1,37.7c-5.9,0-12.9-3.2-12.9-17.4c0-0.9,0-2.3,0.2-3.6c-6.2,12.9-13.4,21-19.5,21
		c-10.2,0-14.6-11-14.6-25.7c0-28.8,16.7-71.5,38.4-71.5c7.6,0,12.3,8.1,12.7,14h1.1c4.7,0,10.4,4,10.4,11c0,0.9,0,1.9-0.2,2.8
		C327.2,368.7,320.6,389.2,320.6,398.2z M310.2,362.3l6.1-27.3c0-3.2-0.6-7.2-5.1-7.2c-12.7,0-24.2,44.3-24.2,64.2
		c0,5.7,0.9,9.3,3.2,9.3C297.2,401.3,305.5,383.3,310.2,362.3z"/>
	<path class="st2" d="M326.5,394.5c0-5.9,3.8-13.6,10.6-12.1c9.5-14.4,19.7-35.8,25.2-47.5c-1.9-5.1-2.8-10.2-2.8-15.1
		c0-12.7,5.9-22.9,13.1-22.9c4.5,0,7,3.2,7,8.5c0,7-4,18-11.9,30.7c4.2,13.6,14.6,32.4,14.6,47.5c0,6.6-1.3,13.1-4.5,18.5
		c7.6-5.7,10.2-12.9,18.5-27.4c1.1-2.1,2.3-3,3.2-3c0.8,0,1.1,0.8,1.1,2.1c0,0.8-0.2,1.7-0.6,2.8c-9.8,24.2-20.4,37.9-44.9,37.9
		C333.9,414.3,326.5,403.5,326.5,394.5z M341.8,385c2.1,2.3,1.9,5.9,1.9,15.3c0,6.2,2.1,9.7,6.6,9.7c6.2,0,13.8-6.4,13.8-30.3
		c0-6.4-0.8-19.3-1.3-30.8C356.8,362.9,347.5,376.7,341.8,385z"/>
	<path class="st2" d="M441.9,399.8c0,3,0.9,4.7,3.4,4.7c6.2,0,12.5-14.6,20.4-29.9c0.9-1.9,2.5-3.2,3.4-3.2c0.8,0,1.1,0.6,1.1,1.7
		c0,0.8-0.2,1.9-0.8,3.4c-2.6,6.8-12.1,38.2-28.6,38.2c-7.6,0-14.8-5.3-14.8-16.7c0-16.5,15-51.5,15-64c0-2.8-0.8-4.5-2.7-4.5
		c-5.5,0-20.4,22.3-28.6,57.5c-4.4,20.4-3.8,27.6-11.4,27.6c-3.6,0-7.2-2.6-7.2-8.3c0-12.3,13.2-79.5,26.1-122.8
		c0.9-3.4,4-4.9,7.4-4.9c4.5,0,9.5,3,9.5,7.9c0,6.1-5.3,16.7-14.6,57.2c6.8-15,15.1-25.9,23.8-25.9c11.2,0,14,8.9,14,15.9
		C457.6,354.7,441.9,387.5,441.9,399.8z"/>
	<path class="st2" d="M523.9,337.5c0,18.2-13.6,43.7-33.7,43.7c-2.3,0-4.7-0.4-7.2-1.1c0,8.3,0.8,22.7,12.5,22.7
		c18,0,27.6-20.4,32.6-28.2c1.1-1.9,2.1-2.6,3-2.6c0.8,0,1.3,0.8,1.3,1.9c0,0.8-0.2,1.7-0.6,2.6c-8.5,21.2-21.8,37.9-43.5,37.9
		c-16.3,0-22.9-14.8-22.9-32.7c0-28.2,16.3-64.7,36.1-64.7c4.2,0,8.5,1.3,10.8,3.2C520.3,321,523.9,328.2,523.9,337.5z M484.9,375.2
		c11.2,0,27.3-29.9,27.3-44.7c0-3-0.4-6.2-3.2-6.2c-10.8,0-23.3,28-25.5,50.7C483.9,375.2,484.3,375.2,484.9,375.2z"/>
	<path class="st2" d="M548.3,334.8c-1.9-5.1-2.8-10.2-2.8-15.1c0-12.7,5.9-22.9,13.1-22.9c4.5,0,7,3.2,7,8.5c0,7-4,18-11.9,30.7
		c4.2,13.6,14.6,32.4,14.6,47.5c0,15.3-7.8,30.8-27.1,30.8c-21.2,0-28.6-10.8-28.6-19.9c0-6.6,3.8-13.2,10.6-12.1
		C532.6,368,542.8,346.6,548.3,334.8z M527.9,385c2.1,2.3,1.9,5.9,1.9,15.3c0,6.2,2.1,9.7,6.6,9.7c6.2,0,13.8-6.4,13.8-30.3
		c0-6.4-0.8-19.3-1.3-30.8C542.8,362.9,533.5,376.7,527.9,385z"/>
</g>
<path class="st3" d="M442.5,196c0,0-128.3,0.2-161.1,78.4c0,0-2.2,4.2,8.1,2.4c0,0,14.9-11.8,36.7,7.8c0,0,5.1,8.1,16.2,2
	c0,0,24.5-9.6,38.9,4.9c0,0,9.1,11.3,18.9,2.2c0,0,18.6-9.6,43.6,3.4c0,0,8.8,7.3,18.4,1.7c0,0,16.2-11,40.9,5.6
	c0,0,5.1,11,14.7,6.4c0,0,24-16.9,50,1.7c0,0,6.4,4.9,9.8-3.7C577.7,308.9,563.8,205.3,442.5,196z"/>
<path class="st4" d="M443.5,308.2"/>
<g>
	<path class="st4" d="M330.4,288.1L330.4,288.1c34.5-66.4,113.6-91.3,115.1-91.8c-1,0-2-0.2-2.9-0.2c0,0-128.3,0.2-161.1,78.4
		c0,0-2.2,4.2,8.1,2.4c0,0,14.9-11.8,36.7,7.8C326.2,284.7,327.7,286.9,330.4,288.1z"/>
	<path class="st4" d="M451.1,196.8c-1.7-0.2-3.7-0.5-5.4-0.5l5.6,3.2c-26.7,8.8-62,97.2-62,97.2l0,0c3.2,1,7.1,0.5,11-3.2
		c0,0,18.6-9.6,43.6,3.4c0,0,4.4,3.4,10,3.9C456.5,275.4,451.8,208.3,451.1,196.8z"/>
	<path class="st4" d="M452.6,197l4.7,5.1c32.3,14.9,54.4,105.3,55.6,110c1.5,0,3.2-0.2,4.9-1.2c0,0,24-16.9,50,1.7
		c0,0,6.4,4.9,9.8-3.7C577.7,308.9,564.5,211,452.6,197z"/>
</g>
<circle class="st2" cx="450.9" cy="195.8" r="9.1"/>
</svg>
