<?xml version="1.0" encoding="utf-8"?>
<!-- Generator: Adobe Illustrator 17.1.0, SVG Export Plug-In . SVG Version: 6.00 Build 0)  -->
<!DOCTYPE svg PUBLIC "-//W3C//DTD SVG 1.1//EN" "http://www.w3.org/Graphics/SVG/1.1/DTD/svg11.dtd">
<svg version="1.1" id="Layer_1" xmlns="http://www.w3.org/2000/svg" xmlns:xlink="http://www.w3.org/1999/xlink" x="0px" y="0px"
	 viewBox="0 0 264.6 123.9" enable-background="new 0 0 264.6 123.9" xml:space="preserve">
<rect x="29.9" y="42.6" fill="none" width="251.7" height="101.4"/>
<text transform="matrix(1 0 0 1 29.9169 98.2961)" fill="#EEEEEE" font-family="'Mission-Script'" font-size="77.2794">Splashes</text>
<path fill="#ADD36B" d="M180.7,9.7c0,0-52.4,0.1-65.8,32c0,0-0.9,1.7,3.3,1c0,0,6.1-4.8,15,3.2c0,0,2.1,3.3,6.6,0.8
	c0,0,10-3.9,15.9,2c0,0,3.7,4.6,7.7,0.9c0,0,7.6-3.9,17.8,1.4c0,0,3.6,3,7.5,0.7c0,0,6.6-4.5,16.7,2.3c0,0,2.1,4.5,6,2.6
	c0,0,9.8-6.9,20.4,0.7c0,0,2.6,2,4-1.5C235.9,55.8,230.2,13.5,180.7,9.7z"/>
<path fill="#32C2DC" d="M181.1,55.5"/>
<g>
	<path fill="#32C2DC" d="M134.9,47.3L134.9,47.3C149,20.2,181.3,10,181.9,9.8c-0.4,0-0.8-0.1-1.2-0.1c0,0-52.4,0.1-65.8,32
		c0,0-0.9,1.7,3.3,1c0,0,6.1-4.8,15,3.2C133.2,45.9,133.8,46.8,134.9,47.3z"/>
	<path fill="#32C2DC" d="M184.2,10c-0.7-0.1-1.5-0.2-2.2-0.2l2.3,1.3c-10.9,3.6-25.3,39.7-25.3,39.7l0,0c1.3,0.4,2.9,0.2,4.5-1.3
		c0,0,7.6-3.9,17.8,1.4c0,0,1.8,1.4,4.1,1.6C186.4,42.1,184.5,14.7,184.2,10z"/>
	<path fill="#32C2DC" d="M184.8,10.1l1.9,2.1c13.2,6.1,22.2,43,22.7,44.9c0.6,0,1.3-0.1,2-0.5c0,0,9.8-6.9,20.4,0.7c0,0,2.6,2,4-1.5
		C235.9,55.8,230.5,15.8,184.8,10.1z"/>
</g>
<circle fill="#EEEEEE" cx="184.1" cy="9.6" r="3.7"/>
</svg>
